<svg version="1.0" width="320" height="230" viewBox="0 0 240 172.5" preserveAspectRatio="xMidYMid" xml:space="preserve" xmlns="http://www.w3.org/2000/svg"><g fill="currentColor" stroke="none"><path d="M890 9193c82 8 318 6 437-4 788-64 1828-390 3051-955l202-94 97 56c388 224 835 385 1276 459 239 40 369 50 642 50 353 0 609-30 924-110 450-113 884-310 1261-573 345-240 685-578 928-919 561-790 806-1783 674-2735l-18-128 175-164c721-672 1324-1356 1718-1946 264-395 450-791 515-1093 26-121 31-371 10-447-70-248-221-409-468-499-789-288-2410 126-4409 1126C4575 2883 1191 5691 251 7568c-355 708-332 1202 67 1460 132 86 325 141 572 165zm3780.5-1223.3s-209.7-326.8-107.6-811a532.3 532.3 0 0 1 870.6-342.3 532.3 532.3 0 0 1 32 786.7l2.2 1.1s-208.7 268.9-486.3 287c-277.7 18.3-310.9 78.5-310.9 78.5zM2469 7850c-80-13-160-43-214-80-283-195-79-729 549-1439 56-62 117-132 137-154l35-40 28 79c148 417 427 876 754 1239l99 110-31 13c-17 8-123 44-236 82-232 77-469 139-645 170-135 23-388 34-476 20zm4900.6-134.5c-691-.6-1218.4-251.7-1581.7-620.8l149-349.5 360.6-848a742.6 742.6 0 0 0 133-241.2c97.7-298.7 3.9-597.3-209.2-666.9-154-50.2-328.5 34.2-450 197a682.6 682.6 0 0 0-144 143.6L5206.6 5899c-36.4-267.7-21-535 48-778.4 246.2-868.4 955.6-907.6 1302.3-870.6 108.8 11.6 236.3-44.7 290.4-139.7 475.9-841.9 1135.6-1599.3 2392-486.9 1342.7 1188.6 704.5 3720.3-1365.2 4051a3191 3191 0 0 1-504.5 41.2zm411.2-553.5a429.2 429.2 0 1 0 0-858.5 429.3 429.3 0 1 0 0 858.5zm-2116-149.6c-35.9-96.6-96-186-180.5-256.7-186-156.2-438.3-182.7-647-90l279.3-377c270-4 565.9 229.6 701.1 364.3zm3056.8-593.5a429.2 429.2 0 1 0 0-858.4 429.2 429.2 0 1 0 0 858.5zm-2787.4-38c-11.6-10.6-23.7-21-36.4-31.5-137.5-116-351.7-264-590.2-318.6l512.3-692.2c109.9-148.5 283.8-219.2 388.7-158.5 104.9 60.7 130.8 247.9 58.5 418.5zm3035.2-1068.3a429.6 429.6 0 0 0 429.5-429.5 429.5 429.5 0 0 0-859 0 429.3 429.3 0 0 0 429.5 429.5zm-841.9-858.4a429.3 429.3 0 1 0 0-858.5 429.1 429.1 0 1 0 0 858.5zM10105 3346c-5 2-37-54-70-124-185-389-415-713-737-1037-98-98-175-182-170-186 13-11 344-126 497-172 297-89 508-128 728-134 245-8 353 18 451 108 79 72 100 131 93 264-7 176-86 361-268 634-117 175-237 330-396 510-65 74-122 136-128 137zM2821 4228c225-1310 1132-2421 2373-2907 320-125 612-198 976-243 162-20 720-17 885 5 129 17 425 74 434 82 6 7 19-1-199 115-1470 779-3118 1893-4352 2942-70 59-129 108-131 108s4-46 14-102z" transform="matrix(-.01733 0 0 -.01733 231.1 166.1)"/></g></svg>
