<svg version="1.0" viewBox="0 0 758 171" preserveAspectRatio="xMidYMid meet" xmlns="http://www.w3.org/2000/svg"><g fill="#000" stroke="none"><path d="M3246 1628c-20-17-28-36-33-75l-6-53h-60c-40 0-66 5-77 15-16 15-17 13-16-25 1-42 5-47 23-29 6 6 28 9 49 7l39-3 3-66c4-82-22-258-44-306-20-42-39-51-62-30-10 9-40 17-72 19l-55 3 40 13c77 26 94 34 99 49 8 20-11 43-36 43-14 0-18-6-16-22 3-20-5-25-52-40-30-10-71-26-89-34-30-14-60-16-197-11-111 3-166 1-173-6-6-6-11-43-11-82 0-69 1-71 30-82l30-11V388l-30-35c-22-25-30-44-30-73 0-21 5-42 10-45 16-10 264-18 305-11 33 7 35 9 35 50 0 27-6 49-19 62-10 11-23 30-30 41-15 29-14 110 2 120 6 4 39 9 72 10 203 5 192 2 222 70 75 170 90 267.2 90 267.2 1.7 45.3-12.9 73.4-46 111.8-17 19-31 38-31 43 0 4 13 35 30 67 35 69 59 198 61 323 1 76 2 81 10 41 4-25 8-82 8-127 1-80 15-111 26-58 12 60 15 71 24 84 5 8 16 11 25 8 22-9 20-59-4-90-24-30-26-47-5-47 20 0 54 74 55 116 0 18-8 42-19 55l-18 23-25-26-26-25-6 45c-11 79-9 85 20 78 22-6 25-4 20 9-3 9-6 24-6 33 0 12-3 13-12 4-21-21-28-13-28 27s11 56 45 63c24 4 27 41 4 46-9 2-29-7-43-20zm-348-725c32-4 47-12 64-35 19-28 20-35 10-75-7-24-20-60-30-81-17-36-18-37-81-40-45-2-67 1-72 10-11 16-12 222-2 232 5 4 21 5 38 1 16-3 49-9 73-12zM3370 1338c-42-68-10-168 39-124 28 26 26 40-4 32-22-6-25-3-25 18 0 17 10 31 30 43 39 23 42 63 5 63-18 0-31-10-45-32zm40-8c0-5-4-10-10-10-5 0-10 5-10 10 0 6 5 10 10 10 6 0 10-4 10-10z" transform="matrix(.1 0 0 -.1 0 171)"/><path d="M0 1250v-30h3087l1 30 1 30H0v-30zM3462 1250l1-30h4117v60H3461l1-30zM80 1024c0-53 1-55 35-70 65-27 68-40 69-282 1-249-4-271-75-301l-39-16V230l297 2 297 3 93 265c51 146 93 272 93 280s-26 79-57 157l-58 143H80v-56zm540-165c20-54 22-68 13-108-22-92-106-326-121-338-18-15-70-17-90-4-10 6-13 61-12 251 0 133 3 247 6 251 3 5 45 9 93 9h89l22-61zM947 888c-42-106-80-204-85-217-7-19 1-47 33-125 23-56 61-149 84-209l43-107h436l81 199c44 110 81 206 81 213s-37 108-82 225l-83 212-216 1h-217l-75-192zm432-104 54-136-23-57c-13-31-36-89-53-128l-30-73h-144l-52 132-52 133 52 132 52 133h142l54-136zM1630 1035c0-39 3-47 24-55 14-5 33-21 43-37 16-24 18-56 21-264 2-130-1-251-5-270-7-24-19-40-46-54-35-19-37-22-37-72v-53h540v210h-45c-37 0-45-3-45-18 0-36-23-53-78-56-82-4-87 3-87 131v108l38 3c32 3 39 0 44-18 4-17 12-20 37-18l31 3v170l-31 3c-25 2-33-1-37-17-4-17-13-21-46-21h-41v94c0 52 4 106 10 120 9 24 14 26 69 26 69 0 84-12 90-72 1-5 21-8 46-8h45v210h-540v-45zM3230 995c0-78 2-85 20-85 36 0 40-31 40-283 0-224-2-245-18-260-10-10-24-17-30-17-8 0-12-21-12-60v-60h340v54c0 48-3 55-22 62-47 14-58 33-58 101v63h178l31-50c31-50 40-93 21-105-5-3-10-33-10-66v-59h300v106l-43 11c-42 12-45 15-105 127l-61 115 55 133c30 73 56 140 57 148 0 8-32 59-72 113l-73 97h-538v-85zm448-115c17-21 32-42 32-47 0-4-12-45-27-91l-28-83-85 3-85 3-3 128-3 127h166l33-40z" transform="matrix(.1 0 0 -.1 0 171)"/><path d="M4017 888c-42-106-80-204-85-217-7-19 1-47 33-125 23-56 61-149 84-209l43-107h436l81 199c44 110 81 206 81 213s-37 108-82 225l-83 212-216 1h-217l-75-192zm432-104 54-136-23-57c-13-31-36-89-52-128l-30-73h-145l-52 132-52 133 52 132 52 133h142l54-136z" transform="matrix(.1 0 0 -.1 0 171)"/><path d="M4680 1000c0-47 4-80 10-80s19-9 30-20c19-19 20-33 20-270V379l-35-20c-33-20-35-24-35-75v-54h350v53c0 51-2 54-32 68-42 18-59 52-56 109l3 45 141 3 141 3 72 177c39 97 71 183 71 189 0 7-32 56-70 108l-71 95h-539v-80zm449-122 35-41-18-51c-10-28-24-66-32-83l-13-33h-171v250h165l34-42z" transform="matrix(.1 0 0 -.1 0 171)"/><path d="M5350 1034c0-41 3-46 29-55 55-19 61-50 61-317 0-133-4-252-10-266-5-14-23-32-40-41-28-14-30-19-30-70v-55h360v54c0 50-2 54-29 65-46 20-56 51-56 175v111l124 3 123 3-4-120c-4-110-6-123-28-146-13-13-31-27-42-31-14-4-18-16-18-60v-54h360v55c0 50-2 56-30 70-16 8-34 24-40 34-14 28-13 498 1 541 8 21 22 37 42 45 27 11 31 18 33 59l3 46h-369v-49c0-43 3-50 21-53 37-5 58-47 65-125l7-73h-256l6 72c7 79 29 121 66 126 18 3 21 10 21 53v49h-370v-46zM6190 1035c0-39 3-47 24-55 14-5 33-21 43-37 16-24 18-56 21-264 2-130-1-251-5-270-7-24-19-40-46-54-35-19-37-22-37-72v-53h540v210h-45c-37 0-45-3-45-18 0-36-23-53-78-56-82-4-87 3-87 131v108l38 3c32 3 39 0 44-18 4-17 12-20 37-18l31 3v170l-31 3c-25 2-33-1-37-17-4-17-13-21-46-21h-41v94c0 52 4 106 10 120 9 24 14 26 69 26 69 0 84-12 90-72 1-5 21-8 46-8h45v210h-540v-45zM6760 975V870h50c41 0 50 3 50 18 1 41 27 56 105 60l75 4V687c0-146-4-277-10-291-5-14-23-32-40-41-28-14-30-19-30-70v-55h360v53c0 47-3 55-24 65-14 6-33 23-43 39-16 24-18 54-18 293v265l52 3c63 4 91-10 105-49 9-26 14-29 53-29h44l3 105 3 105h-735V975zM0 80V50h7580v60H0V80z" transform="matrix(.1 0 0 -.1 0 171)"/></g></svg>
