<?xml version="1.0" encoding="UTF-8" standalone="no"?>
<svg
   width="96"
   height="90"
   viewBox="0 0 142.882 144.21"
   version="1.1"
   id="svg73"
   sodipodi:docname="medium-logo-yellow.example.svg"
   inkscape:version="1.2 (dc2aedaf03, 2022-05-15)"
   xmlns:inkscape="http://www.inkscape.org/namespaces/inkscape"
   xmlns:sodipodi="http://sodipodi.sourceforge.net/DTD/sodipodi-0.dtd"
   xmlns:xlink="http://www.w3.org/1999/xlink"
   xmlns="http://www.w3.org/2000/svg"
   xmlns:svg="http://www.w3.org/2000/svg">
  <sodipodi:namedview
     id="namedview75"
     pagecolor="#505050"
     bordercolor="#eeeeee"
     borderopacity="1"
     inkscape:showpageshadow="0"
     inkscape:pageopacity="0"
     inkscape:pagecheckerboard="0"
     inkscape:deskcolor="#505050"
     showgrid="false"
     inkscape:zoom="4.9077535"
     inkscape:cx="48.392813"
     inkscape:cy="45.030786"
     inkscape:window-width="1366"
     inkscape:window-height="709"
     inkscape:window-x="0"
     inkscape:window-y="0"
     inkscape:window-maximized="1"
     inkscape:current-layer="svg73" />
  <path
     d="M116.115 20.252c-.029-2.254-1.764-4.116-4.008-4.322C93.457 14.186 78.238 4.219 73.22.573c-1.049-.764-2.47-.764-3.518 0-5.008 3.646-20.227 13.612-38.877 15.357-2.244.206-3.969 2.068-4.008 4.322-.225 14.71 2.136 64.651 43.522 75.764.735.196 1.509.196 2.244 0 41.385-11.103 43.747-61.054 43.532-75.764z"
     fill="#6e777a"
     id="path2"
     style="fill:#f2c134;fill-opacity:1" />
  <text
     xml:space="preserve"
     x="74.712"
     y="111.266"
     transform="scale(.94852056 1.0542734)"
     font-size="25.493"
     font-family="Eras Bd BT"
     letter-spacing="0"
     fill="#6e777a"
     id="text8"
     style="fill:#f2c134;fill-opacity:1"><tspan
       x="74.712"
       y="111.266"
       font-weight="normal"
       text-anchor="middle"
       id="tspan4"
       style="fill:#f2c134;fill-opacity:1">Doe</tspan><tspan
       x="74.712"
       y="130.386"
       font-weight="normal"
       text-anchor="middle"
       id="tspan6"
       style="fill:#f2c134;fill-opacity:1">Family</tspan></text>
  <g
     fill="#6e777a"
     id="g58"
     style="fill:#f2c134;fill-opacity:1">
    <g
       transform="matrix(.0183 .003236 .003236 -.0183 44.682884 102.46484)"
       id="g32"
       style="fill:#f2c134;fill-opacity:1">
      <use
         xlink:href="#B"
         id="use10"
         style="fill:#f2c134;fill-opacity:1" />
      <use
         xlink:href="#C"
         id="use12"
         style="fill:#f2c134;fill-opacity:1" />
      <use
         xlink:href="#D"
         id="use14"
         style="fill:#f2c134;fill-opacity:1" />
      <use
         xlink:href="#E"
         id="use16"
         style="fill:#f2c134;fill-opacity:1" />
      <use
         xlink:href="#F"
         id="use18"
         style="fill:#f2c134;fill-opacity:1" />
      <use
         xlink:href="#G"
         id="use20"
         style="fill:#f2c134;fill-opacity:1" />
      <use
         xlink:href="#H"
         id="use22"
         style="fill:#f2c134;fill-opacity:1" />
      <use
         xlink:href="#I"
         id="use24"
         style="fill:#f2c134;fill-opacity:1" />
      <use
         xlink:href="#J"
         id="use26"
         style="fill:#f2c134;fill-opacity:1" />
      <use
         xlink:href="#K"
         id="use28"
         style="fill:#f2c134;fill-opacity:1" />
      <use
         xlink:href="#L"
         id="use30"
         style="fill:#f2c134;fill-opacity:1" />
    </g>
    <g
       transform="matrix(-.0183 .003236 -.003236 -.0183 98.129418 102.26701)"
       id="g56"
       style="fill:#f2c134;fill-opacity:1">
      <use
         xlink:href="#B"
         id="use34"
         style="fill:#f2c134;fill-opacity:1" />
      <use
         xlink:href="#C"
         id="use36"
         style="fill:#f2c134;fill-opacity:1" />
      <use
         xlink:href="#D"
         id="use38"
         style="fill:#f2c134;fill-opacity:1" />
      <use
         xlink:href="#E"
         id="use40"
         style="fill:#f2c134;fill-opacity:1" />
      <use
         xlink:href="#F"
         id="use42"
         style="fill:#f2c134;fill-opacity:1" />
      <use
         xlink:href="#G"
         id="use44"
         style="fill:#f2c134;fill-opacity:1" />
      <use
         xlink:href="#H"
         id="use46"
         style="fill:#f2c134;fill-opacity:1" />
      <use
         xlink:href="#I"
         id="use48"
         style="fill:#f2c134;fill-opacity:1" />
      <use
         xlink:href="#J"
         id="use50"
         style="fill:#f2c134;fill-opacity:1" />
      <use
         xlink:href="#K"
         id="use52"
         style="fill:#f2c134;fill-opacity:1" />
      <use
         xlink:href="#L"
         id="use54"
         style="fill:#f2c134;fill-opacity:1" />
    </g>
  </g>
  <defs
     id="defs71">
    <path
       id="B"
       d="M3935 4518c-133-291-51-634 190-793 80-54 84-52 132 45 72 143 88 279 49 427-37 138-159 277-314 357l-33 17z" />
    <path
       id="C"
       d="M4785 3976c-62-41-153-130-195-191-69-101-120-250-120-355 0-103 63-290 98-290s143 70 212 140c81 80 132 164 156 254 18 69 18 204-2 279-16 63-79 197-92 196-4 0-29-15-57-33z" />
    <path
       id="D"
       d="M3646 3771c-36-57-47-279-20-372 45-151 155-279 303-349 79-38 180-65 192-53 5 5 17 45 26 88 26 128-5 278-79 390-51 77-134 161-206 209-98 64-204 107-216 87z" />
    <path
       id="E"
       d="M4245 3538l-62-32c-1-1 11-40 27-86 51-151 80-334 80-516 1-737-415-1486-1212-2190l-58-50 43-52c23-28 47-50 53-49 23 4 324 291 442 420 277 304 444 541 595 842 202 405 289 792 267 1192-12 210-48 397-98 511l-17 40z" />
    <path
       id="F"
       d="M5037 3255c-121-33-279-131-353-222-105-128-138-214-139-363 0-58 3-117 8-132 6-24 11-27 40-22 94 16 140 30 214 65 190 90 312 284 313 495 0 63-17 175-28 185-4 3-29 1-55-6z" />
    <path
       id="G"
       d="M3705 3003c-57-141-77-276-56-388 31-168 169-332 345-410 83-37 91-35 116 33 66 175 42 346-74 520-58 88-159 181-247 227-37 19-69 35-72 35s-8-8-12-17z" />
    <path
       id="H"
       d="M4855 2475c-137-35-277-114-357-204-85-95-138-227-138-344v-59l118 4c180 7 300 57 414 173 81 81 144 236 149 360 3 90 7 85-68 84-38-1-90-7-118-14z" />
    <path
       id="I"
       d="M3425 2366c-112-232-74-479 100-652 63-62 160-127 207-139 24-6 28-2 56 57 43 92 55 156 50 262-9 156-90 321-216 438-49 46-138 108-154 108-4 0-23-33-43-74z" />
    <path
       id="J"
       d="M3188 1813c-89-95-139-195-158-320-23-151 43-343 164-470 75-79 85-79 152 10 91 120 119 217 111 376-6 117-27 195-83 301-33 63-108 160-123 160-4 0-33-26-63-57z" />
    <path
       id="K"
       d="M4495 1756c-190-44-333-150-404-300-49-102-49-104 2-126 165-73 381-63 532 25 103 61 220 217 253 337l10 38-51 16c-71 22-264 28-342 10z" />
    <path
       id="L"
       d="M4028 1149c-201-22-374-134-452-290l-26-54 22-17c39-30 174-77 253-89 127-19 271 13 374 83 89 62 178 168 216 261l15 38-42 18c-102 43-245 63-360 50z" />
  </defs>
</svg>
