<svg version="1.0" width="320" height="230" viewBox="0 0 240 172.5" xmlns="http://www.w3.org/2000/svg"><path fill="currentColor" d="m163 8.2-3.2.3v14.3c0 12-.3 14.5-1.2 15.5-1.6 1.6-2.8 1.5-4.4-.2-1.1-1.2-1.2-3.4-1.2-14.8V9.8l-2.5.5a140.8 140.8 0 0 0-39 17.2c-4.3 2.8-10 6-12.7 7l-5 2.2v13.2c0 7.6-.2 13.8-.7 14.7-.5.9-1.6 1.4-3 1.4-3.3 0-3.8-2-3.8-15.7 0-10.1-.1-11.6-1.1-11.2A788.1 788.1 0 0 0 51 46.9L43 48.7v9.4c0 8.4-.1 9.6-1.5 11-1.8 1.8-2.2 1.8-4.2.4-1.2-1-1.5-2.3-1.8-9.5l-.4-8.5-6.5 3.3c-4.6 2.4-8 4.8-12.1 9-9.1 9-12.4 17.4-12.4 32.5 0 10.6 1 15 5.3 24 2.5 5.2 4.7 8.5 8.3 12.4 2.8 3 5.3 5.3 5.7 5.3.4 0 .7-6.9.7-15.1 0-14.8 0-15.2 1.7-16.3 1.4-1 1.9-1 3.2-.1 1.5 1 1.5 2 2 19.4l.3 18.5 8 4 7.9 4 .4-14.8c.3-12 .6-15 1.5-15.5 1.4-1 2-1 3.9 0 1.3.7 1.4 1.7 1.4 17 0 14.8.1 16.2 1.4 16.5.6.2-2.4.4-6.8.5-6.7 0-8.2.3-9.2 1.4-1.7 1.8-1.6 4.2 0 5.7 1.3 1.2 8 1.3 81.5 1.3 87.1 0 82.3.2 82.3-4.1 0-3.9-1.5-4.3-18.3-4.3-11.9 0-15-.3-13.5-.9l9-4.2 6.9-3.4v-13.4c0-14.2.6-16.7 3.8-16.7 3 0 3.8 2.7 3.8 13.8 0 5.7.2 10.4.6 10.4a82.4 82.4 0 0 0 32.5-47.6c2.5-9.7 2.8-26.7.6-36-2.2-9.5-8.4-23.9-10.3-23.9-.4 0-.7 4.2-.7 9.3 0 9.6-.5 11.2-3 11.2-.7 0-1.9-.7-2.5-1.4-1.2-1.2-1.3-3.4-1.3-15V24.7l-2.5-2.4a63.3 63.3 0 0 0-12.8-8.5c-.3 0-.6 5-.6 11.2 0 11.8-.7 14.5-3.8 14.5-3 0-3.4-2-3.8-15.8l-.4-13.4-4-.8c-4.6-1-15.8-1.7-20.4-1.3zm-23.8 63.3c.5.5.9 3.3.9 7.2 0 5.4-.2 6.3-1.5 7-1.8 1-4.1 0-4.9-2-1-2.5-.4-10.3.8-11.8 1.5-1.6 3.4-1.7 4.7-.4zm0 23.4c1.3 1.3 1.3 35.6 0 36.8-1.4 1.4-4.3 1.1-5.2-.5-.4-.9-.7-8-.7-18 0-14.2.1-16.6 1.2-17.8 1.5-1.6 3.4-1.7 4.7-.5zm-46.7 8.8c1.2 1 1.4 2.5 1.4 11.5 0 11-.8 13.7-3.8 13.7s-3.8-2.8-3.8-13.3c0-7.7.2-10.2 1.2-11.6 1.4-2 3.1-2 5-.3zm-19.7 18.9c1 1 1.4 2.3 1.4 6.7 0 5.2-.2 5.7-1.9 6.8-1.8 1.3-2 1.3-3.4 0-2.1-2-2.3-12.8-.2-14 1.9-1 2.5-1 4.1.5zm94 8.7c1 1.4 1.3 4 1.3 13.2v11.6h-7.6v-11.6c0-12.2.7-14.9 3.8-14.9.8 0 2 .8 2.6 1.7zm-42.6 11.1c.4.9.7 4.3.7 7.6v6.1h-6.8v-6.6c0-4.2.3-7 1-7.6 1.3-1.4 4.2-1 5 .5zM13 157c-1.2 1.3-1.1 5.6.1 6.6.7.6 3.5.9 7.4.7 5.9-.2 6.4-.4 7.4-2.2 1-1.8 1-2.2-.1-4-1.3-1.9-1.7-2-7.6-2-3.9 0-6.7.4-7.2 1zm198.8.5c-1.7 1.8-1.6 4.2.1 5.8 1.2 1 3 1.2 11.6 1 10-.2 10-.2 11.2-2.2 1-1.8 1-2.2-.2-4-1.3-2-1.3-2-11.4-2-8.8 0-10.2.2-11.3 1.4z" stroke-width=".1"/></svg>
