<svg xmlns="http://www.w3.org/2000/svg" width="320" height="230" preserveAspectRatio="xMidYMid" viewBox="0 0 240 172.5"><path fill="currentColor" d="m100.5 2-1 .6-1.6.2c-1.1 0-1.3 0-2.3.5A7 7 0 0 0 93 5.6c-.3.6-.5 1.2-.4 1.5.1.1.2.1.5-.1.3-.3.3-.3.6-.1.7.5 2.1.1 3.7-1l.4-.2-.5 1c-.6 1-1 2-.7 2.2 0 0 .4 0 .7-.3.4-.3.6-.3.8-.2.8.4 2 0 3.1-1.2l.7-.7.8.5c1.2.8 1.5 1.5.6 1.5l-1.2.3c-.8.4-1.7.4-3.4 0-1-.3-1.3-.2-2.3.7-.4.4-1.3.9-2 1.2-1.1.6-1.5.9-1.7 1.7-.2.6-.1.7.5.5.5-.2.6-.1.8 0l1 .5c1 .2 2.1 0 3.2-.6l.8-.5 1.3.1 2 .3 3.9 1.4c.8.5 1.3.6 3 .9s1.6.3 1.5.6c-.2.4.2.4.8 0 .3-.2.7-.3 1-.3l.8-.2c.3 0 .5 0 1 .3a6 6 0 0 0 3 .8c.2 0 .3 0 .6.5l1 1.2.9 1.3c.4.7 2.5 5.2 2.5 5.5s-.3.4-.8.3l-2 .4-1.8.3c-.7 0-2 .4-2.8.9-.8.4-.9.4-1.4.2l-2.6-.8a10.6 10.6 0 0 1-1.3-.3c-.8-.3-1.9-.3-4.1.2a13.8 13.8 0 0 1-4.6.3c-.4 0-.6-.3-1.2-1.3-1-1.6-2.1-3.1-3.2-4.2l-1.2-1.3c-.2-.3-.6-.6-1-.8l-1-.4-1-.7c-.4-.6-1-.7-3.3-.5-2.6.2-4.3 1-6.2 2.6l-2.4 2c-.9.8-1.5 1.4-2 2.3-.7 1-.8 1.2-1 2.3 0 .8-.2 1.5-.5 2.2a11 11 0 0 0-.6 1.5c-.1.4 0 .5.9 1.2l.7 1.2a9 9 0 0 0 2 3.1l4.8 4.5 1.2 1 1.6 1.2 1 .7-1 .9a17.4 17.4 0 0 0-3.6 3.4l-1.3 2.4-1 2c-.5.4-3.6 2.3-4.7 2.7a9.6 9.6 0 0 0-3.3 2.3c-.8.7-1 .8-1.4.7a37 37 0 0 0-6-5.8 68 68 0 0 1-4.4-4.2L58 43.6l.1-.5.3-.9.7-2.4c.6-2.2.6-2.7.2-3.5-.3-.5-.3-.8 0-1.4a6 6 0 0 0 .4-.9c.1-.4-.2-1.1-.6-1.5a2 2 0 0 1-.5-.8c-.2-.9-.6-1.2-1.3-1.2-.6 0-.9.1-.5.3.1 0 0 .2-.3.5-.5.5-.6 1.2 0 2.3.3.8.3.8 0 1.5-.3 1.2-.6 1.5-1 1.7-.8.3-1.4.3-2.4-.2-1.5-.7-2.5-2-3-4.2l-.9-2.3c-.2-.5-.4-1.3-.4-1.9-.2-1.5-.4-1.9-1-2.5-.8-.8-1.2-.7-1.5.3l-.3.9.4 1.4.4 2.2.3 2 .4 2.1c0 1.4-.2 1.3-1.6-.2L43 31.5 41 29.3c-.5-.6-.7-.7-1.3-.8-.9 0-1.1.1-1 1 0 .7.4 1.4 1.2 2.1A7.3 7.3 0 0 1 41 33l1.8 2.1 1.7 1.9c.4.6.4.6.2.7-.5.3-.8.2-2.2-.6l-2-1c-.3 0-1-.4-1.5-.8-1.8-1.2-3.1-1.5-3.6-1-.2.3-.2.3.1 1 .4.7.5.8 1.6 1.3l1.9 1.2 1.2.9c1 .5 3 2 3 2.1-.1.3-1 .3-2 0l-1.5-.4-1.4-.3c-.9-.2-1-.2-1.5 0-.6.4-.7.6-.5.9.4.5 1 .8 2 1 2.5.8 5.7 2.3 7.4 3.6l3.8 2.8c1.1.7 1.3.9 1.5 1.5.1.6.3.8 1 1.2 1.7 1.1 5.4 5.3 8.5 9.5a32.3 32.3 0 0 0 6.6 6.8c1.9 1.8 2.5 2.2 3.7 2.2.7 0 1.7-.4 2.4-.8a8.9 8.9 0 0 1 1.3-.7 13 13 0 0 0 2.8-1.6 7 7 0 0 1 2-1l2.5-.7c.8-.2 2.7-1 4-1.8l1.8-.9c1-.4 1.9-1 2.6-1.6 1.3-1.1 2-1.7 2.7-2.1.5-.3.6-.3 1-.1a13 13 0 0 1 2.7 1.8l.7.5.8.6.8.5 1.5 1.2 1.2.9 1.5.8 1.4.7.4.1 2.2.1h2l1.1 1.1a29 29 0 0 0 4.4 3.6c.6.3 1.3.5 2.2.7l1.9.8 1.8.7c.8.2 1 .4 1.7 1.2l.4.6-.3.3-.3.6c0 .2-.1.4-.3.5-.2.2-.2.3 0 .8l.5 1.5c.2 1.2.6 1.6 1.3 1.5.4-.1.4 0 .1.2v.3c.1.2-.1 1.2-.5 1.6l-.3.5c0 .3-1 1.1-1.6 1.5A11.8 11.8 0 0 0 119 85l-.7.5-2.3 1.6c-1.2 1-5 5-5.7 5.9a58.1 58.1 0 0 0-1.1 1.7l-1 1.3-.3.6c0 .3-.8 1.5-1.4 2-.3.2-.8 1-1.6 2.5l-1 1.8c-.5.5-1.1 2-1.1 2.7l-.4.7c-.5.8-2.6 4.9-2.9 5.8-.6 2.1.4 6 2 8a12.7 12.7 0 0 1 1 1c.4.7 1.8 2.1 6.6 6.6a26 26 0 0 1 4.4 4.5c.4.2.4.4.4 1 0 .8-.3 1.3-1.2 2.2a7 7 0 0 0-1 1.2l-.3.5-1.2 1a50.9 50.9 0 0 1-7.5 6.4l-1.8 1.1-1.2.6a12.4 12.4 0 0 0-4 2.2l-1.1 1c-.4.6-1.2 1-2.7 1.1-.7.1-1.2.3-1.4.5-.3.2-.7.3-2.4.2l-1.6.2a1.8 1.8 0 0 1-1 0c-.8-.4-1.8-.5-2.4-.4-.3 0-.8.4-1.3.8-.5.5-.9.7-1.2.7-1 0-2.6 1.5-3 2.8l-.2 1.6v.8l.3-.4c.8-1 1.5-1.6 2-1.8 1-.2 1 .1.4 1.7l-.2 1.8c0 .9 0 .9.2.5 1-1.4 1.5-1.9 2.3-2 .4-.1.4-.1.4.3 0 1 1.3 1.6 2.8 1.4.7-.1 2-.7 2.5-1.1.3-.3.4-.3 1.4-.1a4 4 0 0 0 2.1 0l1.4-.3 1.5-.4 1.1-.3 1 .3c.6.2 1.1.3 3 .3h2.4l1-.5c.5-.2 1-.6 1.2-.9a18 18 0 0 1 .9-1l1-1.6c.4-.9.8-1.3 2.1-2.4.5-.3.3.1-.4 1-.8 1-1.4 2.2-1.4 3-.1.6 0 .7.3 1l.5.6c0 .4-.5 1-1.2 1.5l-.7.5h.5c.8 0 1.5-.1 2.3-.7.8-.6 1.3-1.4 1.6-2.5a11 11 0 0 1 3-5.2c0-.2.9-1.5 1.6-2.2.6-.6 1.8-2.9 2-3.7.1-.5 2.6-3 3.6-3.5 1-.6 2.4-1.8 3-2.4l1.4-1a6 6 0 0 0 2.1-2.4c.3-.5.3-.7.1-1.4-.1-.7-.9-2.1-1.5-2.8l-.5-.6c-.1-.3-2.2-2.8-2.6-3.2-.3-.2-.8-1-.8-1.1l-.2-.3-.3-1c0-.4-.3-1.1-.5-1.6l-.4-1-.6-1.2a7 7 0 0 0-2-2.3 17 17 0 0 0-2.5-1.9c-1.7-.9-2.3-1.3-2.6-1.7-.2-.4-.2-.4 0-.6.5-.6 3.9-2.3 5.4-2.8l3-1.6a51.2 51.2 0 0 0 9.7-7.5c.2 0 1-.8 1.7-1.5l1.3-1.3.8 1.3a33.8 33.8 0 0 0 1.5 2.4l.7 1.1.8.9c.4.4.9 1 1 1.3s.4.5.6.7l1.5 1.3 1.6 1.4c.6.3 1.3 1.4 1.8 2.8l.5.7c.2 0 .6.6 1 1a27.2 27.2 0 0 0 1.2 1.8c.4.5.8 1 .8 1.2.2.5.7 1 1 1l1 .8 3 2.3c.5.2 1.4 1.2 2.4 2.5l.9 1.1c.4.3 2 1.3 2.2 1.3l2.5 1.2a4 4 0 0 0 1.5.6l1.2.5 1.7.7 1.7.6 5.1 2.2c2.4 1.1 3.1 1.5 3.4 1.8l1 .5c.4.1.8.4 1 .6l1.3 1c1.7 1.1 4.5 3.8 5.2 5.1a27.7 27.7 0 0 1 1.8 3l.5 1 1 1.6 1.1 1.5a49.1 49.1 0 0 0 4 8.1c.3.5.4 1.3.1 1.3 0 0-.1 0 0 .1 0 .3-1 .9-1.7 1.2-.3 0-.6.2-.6.3l-.6.6c-.4.3-.7.4-2 .5-1 .1-1.5.2-1.7.4-.2.2-.7.2-2.8.2-2.2 0-2.6 0-3.1-.2-.8-.4-2-.5-2.7-.3-.7.3-1.9 1.4-2.3 2.2-.4.7-.7 2.3-.6 2.9 0 .2.1.2.8-.7.8-1 1.4-1.4 2-1.4l.5.1-.6 1.3c-.4 1-.5 1.3-.6 2.5v1.4l.8-1c.6-1 1.3-1.7 1.7-1.7l.3.4c.3 1.5 2 2.1 3.9 1.5l.7-.2v1.4l.1 1.3.6-1.3a5 5 0 0 1 1-1.4c.2-.1.2 0 .4.3.5 1.1 1.5 1.6 2.8 1.3.6-.2 2.2-1 2.6-1.5.1-.2.4-.2 1-.1.6 0 1 0 1.7-.3 1.7-.6 2.3-.7 4-.5 1.5.2 2.1.1 4-.5 1.2-.3 2.1-1 2.3-1.6 0-.3.3-1 .6-1.6.4-1 .5-1.2.4-2.2-.2-1.6-1-3.5-2.5-6l-1.5-2.7c-.8-1.5-1.6-2.7-3.7-5.8-1-1.4-1.7-2.7-2.2-4.1l-.6-1.5c-.4-1-1.4-4.1-1.7-5.4-.3-1.3-.6-2.3-1.4-4.1a9 9 0 0 1-.4-1.4 4 4 0 0 0-1.1-2.2c-.7-.7-1.4-1-3.2-1-2.3 0-4.7-.8-5.7-1.7a4.6 4.6 0 0 1-.9-1.2l-.4-.8a8 8 0 0 1-.7-1 6.8 6.8 0 0 0-2-2.6c-1-.6-3.8-1.6-6.2-2.2a19.4 19.4 0 0 1-3.5-1.2c-1.2-.4-2.3-1.6-2.9-3.2 0-.4-.5-1.2-.8-1.9a81 81 0 0 1-4.2-9.6l-.8-2a91 91 0 0 0-3.3-6.7c-.5-1-1-1.7-2-2.7l-1.3-1.3.3-.5c.5-.9.9-2 1-2.7v-.6l1.2-.3A42.6 42.6 0 0 0 174 74c1.1-1.2 2.5-3.4 3-4.6 1.4-3.7 2.5-8.6 2.3-10.2-.3-2.8-1.1-5-2.7-7a16.4 16.4 0 0 1-2.8-6.8V45l1.5-.7c1.8-.9 2.5-1 4.2-.6 1.1.2 6.6 1.8 12.1 3.6 3 1 5.2 1.4 5.6 1l.2-.4c0-.4-2.8-2-6.4-3.4l-5.3-2.5c-5.5-2.5-6.3-2.7-8.6-2.8-1.8 0-3.4.2-4.6.7l-1.2.3c-.4.1-.8.3-1.1.7-.4.3-.7.5-1 .5-.4 0-1 .6-1.3 1.3l-.2.7-.3.5c-.3.3-.3.6-.3 1.1l-.2.9c-.3.2-.4.8-.2 1.6.2.6.2.8 0 1a2 2 0 0 0-.3.7c0 .4 0 .6.5 1.2.4.5.6.8.5 1l-.1.7c0 .5.1.8.5 1.3.4.4.5.8.5 1-.1.4.2 1.3.6 1.7l.5.5-.4.1c-.5.3-.5 1 .1 2.2l.5 1-1.2.7V62.9l-.6.3c-.5 0-1 .7-1 1.6l-.6 1-.4.6-.6-.2-.7-.2c-.2 0-1.2.8-1.6 1.4-.4.6-1.7 2-1.8 2l-.6-.3c-.7-.6-1.3-.5-2.1.3-1.1 1.1-1.5 1.4-2.2 1.3-.4 0-.8.1-1.5.5-1.2.6-2.8 1-3.3.8H150c-1 .4-2.6.4-3.5 0-.6 0-.8-.3-1.6-1.2-.7-.9-.8-1.2-.8-1.5.1-.2 0-.6-.7-1.5a13.9 13.9 0 0 1-1.3-2.4c-.5-1.2-.6-1.4-1-1.4l-.3-.3c0-.2-.2-.2-.3-.2-.3 0-.3 0-.4-.8l-.3-1.3-.5-1.5a4 4 0 0 0-.5-1.3c-.2-.1-.4-.4-.4-.7l-.4-.9c-.3-.6-1.3-3.1-1.3-3.5l-.4-1.3a8.6 8.6 0 0 1-.5-2l-.4-3.1c-.5-2.6-.6-4.2-.8-7.2-.2-2.3-.4-3.5-1-4.5-.2-.4-.2-.5 0-.7.4-.5.5-1 .6-2.4 0-1 .2-1.6.3-1.8a6 6 0 0 1 1.1-1c1.6-1 1.7-1.2 2-1.9.5-1.1.2-2.3-1.3-4.1-.5-.6-1.3-1.8-1.8-3a16.9 16.9 0 0 0-9-8.8c-.3-.1-.8-.5-1.3-1a7 7 0 0 0-1.4-1l-1.6-1a15.8 15.8 0 0 0-1.8-1c-1.2-.4-3.7-1.1-5.2-1.4a8.8 8.8 0 0 1-3.3-1.1c-.4-.3-.7-.4-1.3-.3-1.2 0-2.1-.5-2.7-1.4-.3-.4-.7-1-1-1.2-.3-.4-.5-.5-1-.5-.6 0-.8.1-1.2.5-.6.4-1 .5-1.2.1-.1-.3-.8-.6-1.3-.6-.2 0-.6.1-.8.3z"/></svg>
