<svg version="1.0" width="174" height="30" viewBox="0 0 130.5 22.5" xmlns="http://www.w3.org/2000/svg"><path d="M33 1c-3.8 1.4-4.8 2-10.2 7.6a34.3 34.3 0 0 1-8 6.6 40 40 0 0 1-12.4 3.6C.7 18.8-.4 20 0 21.1c.7 1.9 9.5.3 16-3 2.5-1.1 4.6-2.9 8.5-6.7 3-3.2 6.1-5.7 7.7-6.5 2.9-1.5 8.5-2.3 9-1.4.3.3.2.5-.1.5-1.2 0-4.1 2.7-5 4.8-2.5 4.9-1 9.2 3.9 11.7 7.4 3.8 16.6.3 24.8-9.3 4.3-5.1 8-7.4 12.6-8 3.9-.4 4.6.1 2.1 1.7a10 10 0 0 0-4.6 8.8c.3 3.3 1.9 5.3 5.2 7 2.5 1.2 3.3 1.3 6.8 1.2 7-.4 10.4-2.6 20-13 1.7-1.8 3.7-3.4 5.4-4.1 3-1.4 9-2.3 9-1.3 0 .3-.3.5-.6.5-1 0-4.3 3.4-5.1 5.4-2.1 4.5-.5 8.7 4.1 11a9 9 0 0 0 5.4 1.4c2.3-.1 2.5-.2 2.5-1.4 0-1.1-.2-1.4-2.3-1.6-5.4-.8-8.1-3.5-7.1-7.2.9-3.3 4.3-5.5 8.3-5.5 2.6 0 4-1 3.1-2.5-1.2-1.9-4.8-3.3-8.9-3.5-7.4-.5-12.7 2-17.9 8.3-6 7.2-10.8 10.2-16.5 10.2-6 0-9-2.8-8-7.1 1-3.3 4-5.2 9.2-5.5 2.3-.2 3.1-1.6 1.9-3C86.4-.3 76.9-1 71 1.8c-3 1.4-4 2.4-11 9.8-7 7.2-15.4 9.3-20.3 5.1-1.2-1-1.4-1.6-1.4-3.5.1-4.2 3.5-7 8.3-7 2 0 3.7-1 3.7-2 0-.3-.7-1-1.4-1.5C45 0 38-.8 33 1Z" stroke-width=".1"/></svg>